<mxfile host="app.diagrams.net" agent="Mozilla/5.0 (Macintosh; Intel Mac OS X 10_15_7) AppleWebKit/605.1.15 (KHTML, like Gecko) Version/18.3 Safari/605.1.15" version="27.1.4">
  <diagram name="Page-1" id="NHhMc8hHbGFYD58Z5W1f">
    <mxGraphModel dx="976" dy="671" grid="1" gridSize="10" guides="1" tooltips="1" connect="1" arrows="1" fold="1" page="1" pageScale="1" pageWidth="827" pageHeight="1169" math="0" shadow="0">
      <root>
        <mxCell id="0" />
        <mxCell id="1" parent="0" />
        <mxCell id="FqFrVolzEPRRc96D3bEb-1" value="连续TBM数据&lt;br&gt;推力, 扭矩, 转速等" style="shape=cylinder3;whiteSpace=wrap;html=1;boundedLbl=1;backgroundOutline=1;size=15;fillColor=#dae8fc;strokeColor=#6c8ebf;" vertex="1" parent="1">
          <mxGeometry x="560" y="320" width="160" height="70" as="geometry" />
        </mxCell>
        <mxCell id="FqFrVolzEPRRc96D3bEb-2" value="离散微震事件&lt;br&gt;时间, 三维坐标, 能量" style="shape=cylinder3;whiteSpace=wrap;html=1;boundedLbl=1;backgroundOutline=1;size=15;fillColor=#d5e8d4;strokeColor=#82b366;" vertex="1" parent="1">
          <mxGeometry x="960" y="320" width="160" height="70" as="geometry" />
        </mxCell>
        <mxCell id="FqFrVolzEPRRc96D3bEb-3" value="TBM编码器&lt;br&gt;&lt;b&gt;Transformer Encoder&lt;/b&gt;" style="rounded=0;whiteSpace=wrap;html=1;fillColor=#dae8fc;strokeColor=#6c8ebf;" vertex="1" parent="1">
          <mxGeometry x="560" y="440" width="160" height="70" as="geometry" />
        </mxCell>
        <mxCell id="FqFrVolzEPRRc96D3bEb-4" value="" style="endArrow=classic;html=1;rounded=0;" edge="1" parent="1" source="FqFrVolzEPRRc96D3bEb-1" target="FqFrVolzEPRRc96D3bEb-3">
          <mxGeometry width="50" height="50" relative="1" as="geometry">
            <mxPoint x="820" y="490" as="sourcePoint" />
            <mxPoint x="870" y="440" as="targetPoint" />
          </mxGeometry>
        </mxCell>
        <mxCell id="FqFrVolzEPRRc96D3bEb-5" value="时空图构建" style="rounded=0;whiteSpace=wrap;html=1;fillColor=#d5e8d4;strokeColor=#82b366;" vertex="1" parent="1">
          <mxGeometry x="960" y="440" width="160" height="40" as="geometry" />
        </mxCell>
        <mxCell id="FqFrVolzEPRRc96D3bEb-6" value="" style="endArrow=classic;html=1;rounded=0;" edge="1" parent="1" source="FqFrVolzEPRRc96D3bEb-2" target="FqFrVolzEPRRc96D3bEb-5">
          <mxGeometry width="50" height="50" relative="1" as="geometry">
            <mxPoint x="830" y="500" as="sourcePoint" />
            <mxPoint x="880" y="450" as="targetPoint" />
          </mxGeometry>
        </mxCell>
        <mxCell id="FqFrVolzEPRRc96D3bEb-7" value="微震编码器&lt;br&gt;&lt;b&gt;GAT + GRU&lt;/b&gt;" style="rounded=0;whiteSpace=wrap;html=1;fillColor=#d5e8d4;strokeColor=#82b366;" vertex="1" parent="1">
          <mxGeometry x="960" y="510" width="160" height="70" as="geometry" />
        </mxCell>
        <mxCell id="FqFrVolzEPRRc96D3bEb-8" value="" style="endArrow=classic;html=1;rounded=0;" edge="1" parent="1" source="FqFrVolzEPRRc96D3bEb-5" target="FqFrVolzEPRRc96D3bEb-7">
          <mxGeometry width="50" height="50" relative="1" as="geometry">
            <mxPoint x="1050" y="410" as="sourcePoint" />
            <mxPoint x="1050" y="460" as="targetPoint" />
          </mxGeometry>
        </mxCell>
        <mxCell id="FqFrVolzEPRRc96D3bEb-9" value="跨模态注意力融合层&lt;br&gt;&lt;b&gt;Cross-Modal Attention&lt;/b&gt;" style="rhombus;whiteSpace=wrap;html=1;rounded=0;fillColor=#e1d5e7;strokeColor=#9673a6;" vertex="1" parent="1">
          <mxGeometry x="740" y="650" width="200" height="120" as="geometry" />
        </mxCell>
        <mxCell id="FqFrVolzEPRRc96D3bEb-10" value="TBM特征序列" style="edgeStyle=orthogonalEdgeStyle;rounded=0;orthogonalLoop=1;jettySize=auto;html=1;entryX=0.5;entryY=0;entryDx=0;entryDy=0;" edge="1" parent="1" source="FqFrVolzEPRRc96D3bEb-3" target="FqFrVolzEPRRc96D3bEb-9">
          <mxGeometry relative="1" as="geometry">
            <mxPoint x="640" y="650" as="targetPoint" />
          </mxGeometry>
        </mxCell>
        <mxCell id="FqFrVolzEPRRc96D3bEb-11" value="微震图特征" style="edgeStyle=orthogonalEdgeStyle;rounded=0;orthogonalLoop=1;jettySize=auto;html=1;entryX=0.5;entryY=0;" edge="1" parent="1" source="FqFrVolzEPRRc96D3bEb-7" target="FqFrVolzEPRRc96D3bEb-9">
          <mxGeometry relative="1" as="geometry">
            <mxPoint x="1040" y="650" as="targetPoint" />
            <Array as="points">
              <mxPoint x="1040" y="620" />
              <mxPoint x="840" y="620" />
            </Array>
          </mxGeometry>
        </mxCell>
        <mxCell id="FqFrVolzEPRRc96D3bEb-12" value="主干预测网络&lt;br&gt;&lt;b&gt;Transformer Encoder&lt;/b&gt;" style="rounded=0;whiteSpace=wrap;html=1;fillColor=#f8cecc;strokeColor=#b85450;" vertex="1" parent="1">
          <mxGeometry x="760" y="820" width="160" height="70" as="geometry" />
        </mxCell>
        <mxCell id="FqFrVolzEPRRc96D3bEb-13" value="融合后的时序特征" style="endArrow=classic;html=1;rounded=0;" edge="1" parent="1" source="FqFrVolzEPRRc96D3bEb-9" target="FqFrVolzEPRRc96D3bEb-12">
          <mxGeometry width="50" height="50" relative="1" as="geometry">
            <mxPoint x="830" y="760" as="sourcePoint" />
            <mxPoint x="880" y="710" as="targetPoint" />
          </mxGeometry>
        </mxCell>
        <mxCell id="FqFrVolzEPRRc96D3bEb-14" value="" style="endArrow=none;html=1;rounded=0;exitX=0.5;exitY=1;exitDx=0;exitDy=0;" edge="1" parent="1" source="FqFrVolzEPRRc96D3bEb-12">
          <mxGeometry width="50" height="50" relative="1" as="geometry">
            <mxPoint x="830" y="910" as="sourcePoint" />
            <mxPoint x="840" y="930" as="targetPoint" />
          </mxGeometry>
        </mxCell>
        <mxCell id="FqFrVolzEPRRc96D3bEb-15" value="" style="endArrow=none;html=1;rounded=0;" edge="1" parent="1">
          <mxGeometry width="50" height="50" relative="1" as="geometry">
            <mxPoint x="600" y="930" as="sourcePoint" />
            <mxPoint x="1080" y="930" as="targetPoint" />
          </mxGeometry>
        </mxCell>
        <mxCell id="FqFrVolzEPRRc96D3bEb-16" value="预测头1:&lt;br&gt;&lt;b&gt;岩爆风险回归&lt;/b&gt;" style="rounded=0;whiteSpace=wrap;html=1;fillColor=#fff2cc;strokeColor=#d6b656;" vertex="1" parent="1">
          <mxGeometry x="540" y="960" width="120" height="60" as="geometry" />
        </mxCell>
        <mxCell id="FqFrVolzEPRRc96D3bEb-17" value="预测头2:&lt;br&gt;&lt;b&gt;孕育模式分类&lt;/b&gt;" style="rounded=0;whiteSpace=wrap;html=1;fillColor=#fff2cc;strokeColor=#d6b656;" vertex="1" parent="1">
          <mxGeometry x="780" y="960" width="120" height="60" as="geometry" />
        </mxCell>
        <mxCell id="FqFrVolzEPRRc96D3bEb-18" value="预测头3 (可选):&lt;br&gt;&lt;b&gt;能量等级预测&lt;/b&gt;" style="rounded=0;whiteSpace=wrap;html=1;fillColor=#fff2cc;strokeColor=#d6b656;" vertex="1" parent="1">
          <mxGeometry x="1020" y="960" width="120" height="60" as="geometry" />
        </mxCell>
        <mxCell id="FqFrVolzEPRRc96D3bEb-19" value="" style="endArrow=classic;html=1;rounded=0;entryX=0.5;entryY=0;entryDx=0;entryDy=0;" edge="1" parent="1" target="FqFrVolzEPRRc96D3bEb-16">
          <mxGeometry width="50" height="50" relative="1" as="geometry">
            <mxPoint x="600" y="930" as="sourcePoint" />
            <mxPoint x="650" y="880" as="targetPoint" />
          </mxGeometry>
        </mxCell>
        <mxCell id="FqFrVolzEPRRc96D3bEb-20" value="" style="endArrow=classic;html=1;rounded=0;entryX=0.5;entryY=0;entryDx=0;entryDy=0;" edge="1" parent="1" target="FqFrVolzEPRRc96D3bEb-17">
          <mxGeometry width="50" height="50" relative="1" as="geometry">
            <mxPoint x="840" y="930" as="sourcePoint" />
            <mxPoint x="890" y="880" as="targetPoint" />
          </mxGeometry>
        </mxCell>
        <mxCell id="FqFrVolzEPRRc96D3bEb-21" value="" style="endArrow=classic;html=1;rounded=0;entryX=0.5;entryY=0;entryDx=0;entryDy=0;" edge="1" parent="1" target="FqFrVolzEPRRc96D3bEb-18">
          <mxGeometry width="50" height="50" relative="1" as="geometry">
            <mxPoint x="1080" y="930" as="sourcePoint" />
            <mxPoint x="1130" y="880" as="targetPoint" />
          </mxGeometry>
        </mxCell>
        <mxCell id="FqFrVolzEPRRc96D3bEb-22" value="输出1: 未来X小时岩爆概率&lt;br&gt;&lt;b&gt;例如: 0.85&lt;/b&gt;" style="shape=parallelogram;perimeter=parallelogramPerimeter;whiteSpace=wrap;html=1;fixedSize=1;fillColor=#f5f5f5;strokeColor=#666666;fontStyle=0" vertex="1" parent="1">
          <mxGeometry x="515" y="1050" width="170" height="60" as="geometry" />
        </mxCell>
        <mxCell id="FqFrVolzEPRRc96D3bEb-23" value="" style="endArrow=classic;html=1;rounded=0;" edge="1" parent="1" source="FqFrVolzEPRRc96D3bEb-16" target="FqFrVolzEPRRc96D3bEb-22">
          <mxGeometry width="50" height="50" relative="1" as="geometry">
            <mxPoint x="830" y="1050" as="sourcePoint" />
            <mxPoint x="880" y="1000" as="targetPoint" />
          </mxGeometry>
        </mxCell>
        <mxCell id="FqFrVolzEPRRc96D3bEb-24" value="输出2: 当前孕育模式&lt;br&gt;&lt;b&gt;例如: 突发-静默型 (80%)&lt;/b&gt;" style="shape=parallelogram;perimeter=parallelogramPerimeter;whiteSpace=wrap;html=1;fixedSize=1;fillColor=#f5f5f5;strokeColor=#666666;" vertex="1" parent="1">
          <mxGeometry x="755" y="1050" width="170" height="60" as="geometry" />
        </mxCell>
        <mxCell id="FqFrVolzEPRRc96D3bEb-25" value="" style="endArrow=classic;html=1;rounded=0;" edge="1" parent="1" source="FqFrVolzEPRRc96D3bEb-17" target="FqFrVolzEPRRc96D3bEb-24">
          <mxGeometry width="50" height="50" relative="1" as="geometry">
            <mxPoint x="840" y="1060" as="sourcePoint" />
            <mxPoint x="890" y="1010" as="targetPoint" />
          </mxGeometry>
        </mxCell>
        <mxCell id="FqFrVolzEPRRc96D3bEb-26" value="输出3: 可能的岩爆等级&lt;br&gt;&lt;b&gt;例如: II级 (70%)&lt;/b&gt;" style="shape=parallelogram;perimeter=parallelogramPerimeter;whiteSpace=wrap;html=1;fixedSize=1;fillColor=#f5f5f5;strokeColor=#666666;" vertex="1" parent="1">
          <mxGeometry x="995" y="1050" width="170" height="60" as="geometry" />
        </mxCell>
        <mxCell id="FqFrVolzEPRRc96D3bEb-27" value="" style="endArrow=classic;html=1;rounded=0;" edge="1" parent="1" source="FqFrVolzEPRRc96D3bEb-18" target="FqFrVolzEPRRc96D3bEb-26">
          <mxGeometry width="50" height="50" relative="1" as="geometry">
            <mxPoint x="1090" y="1060" as="sourcePoint" />
            <mxPoint x="1140" y="1010" as="targetPoint" />
          </mxGeometry>
        </mxCell>
        <mxCell id="FqFrVolzEPRRc96D3bEb-28" value="GAT-T: 时空图注意力融合Transformer网络" style="text;html=1;strokeColor=none;fillColor=none;align=center;verticalAlign=middle;whiteSpace=wrap;rounded=0;fontSize=20;fontStyle=1" vertex="1" parent="1">
          <mxGeometry x="590" y="200" width="500" height="30" as="geometry" />
        </mxCell>
        <mxCell id="FqFrVolzEPRRc96D3bEb-29" value="" style="rounded=1;whiteSpace=wrap;html=1;dashed=1;fillColor=none;strokeColor=#333333;" vertex="1" parent="1">
          <mxGeometry x="480" y="260" width="720" height="360" as="geometry" />
        </mxCell>
        <mxCell id="FqFrVolzEPRRc96D3bEb-30" value="输入模块: 双流独立编码" style="text;html=1;align=center;verticalAlign=middle;resizable=0;points=[];autosize=1;strokeColor=none;fillColor=none;fontStyle=1" vertex="1" parent="1">
          <mxGeometry x="765" y="270" width="150" height="30" as="geometry" />
        </mxCell>
        <mxCell id="FqFrVolzEPRRc96D3bEb-31" value="" style="rounded=1;whiteSpace=wrap;html=1;dashed=1;fillColor=none;strokeColor=#333333;" vertex="1" parent="1">
          <mxGeometry x="720" y="630" width="240" height="150" as="geometry" />
        </mxCell>
        <mxCell id="FqFrVolzEPRRc96D3bEb-32" value="融合模块: 跨模态注意力" style="text;html=1;align=center;verticalAlign=middle;resizable=0;points=[];autosize=1;strokeColor=none;fillColor=none;fontStyle=1" vertex="1" parent="1">
          <mxGeometry x="755" y="630" width="170" height="30" as="geometry" />
        </mxCell>
        <mxCell id="FqFrVolzEPRRc96D3bEb-33" value="" style="rounded=1;whiteSpace=wrap;html=1;dashed=1;fillColor=none;strokeColor=#333333;" vertex="1" parent="1">
          <mxGeometry x="480" y="800" width="720" height="340" as="geometry" />
        </mxCell>
        <mxCell id="FqFrVolzEPRRc96D3bEb-34" value="预测模块: 多任务解码" style="text;html=1;align=center;verticalAlign=middle;resizable=0;points=[];autosize=1;strokeColor=none;fillColor=none;fontStyle=1" vertex="1" parent="1">
          <mxGeometry x="770" y="800" width="140" height="30" as="geometry" />
        </mxCell>
      </root>
    </mxGraphModel>
  </diagram>
</mxfile>
